<svg width="21" height="21" viewBox="0 0 21 21" fill="none" xmlns="http://www.w3.org/2000/svg">
<g id="Group 384">
<path id="Vector" d="M10.6899 10.3101L9.35041 11.6496C8.60941 12.3906 8.60941 13.5971 9.35041 14.3381C10.0914 15.0791 11.2979 15.0791 12.0389 14.3381L14.1479 12.2291C14.8596 11.5153 15.2593 10.5485 15.2593 9.54057C15.2593 8.53263 14.8596 7.56581 14.1479 6.85207C13.4342 6.14038 12.4674 5.74072 11.4594 5.74072C10.4515 5.74072 9.48466 6.14038 8.77091 6.85207L6.47191 9.15107C6.16921 9.45351 5.92908 9.81264 5.76525 10.2079C5.60142 10.6032 5.51709 11.0269 5.51709 11.4548C5.51709 11.8827 5.60142 12.3064 5.76525 12.7017C5.92908 13.097 6.16921 13.4561 6.47191 13.7586" stroke="#104D5B" stroke-width="1.5" stroke-linecap="round" stroke-linejoin="round"/>
<path id="Vector_2" d="M7.65 20H13.35C18.1 20 20 18.1 20 13.35V7.65C20 2.9 18.1 1 13.35 1H7.65C2.9 1 1 2.9 1 7.65V13.35C1 18.1 2.9 20 7.65 20Z" stroke="#104D5B" stroke-width="1.5" stroke-linecap="round" stroke-linejoin="round"/>
</g>
</svg>
