<svg width="20" height="14" viewBox="0 0 20 14" fill="none" xmlns="http://www.w3.org/2000/svg">
<path id="shape" d="M2.63636 13H1V12.1428C1 10.5453 2.043 9.2029 3.45455 8.82229M5.09091 5.99655C4.13757 5.64354 3.45455 4.69105 3.45455 3.57144C3.45455 2.45182 4.13757 1.49933 5.09091 1.14633M17.3636 13H19V12.1428C19 10.5453 17.957 9.2029 16.5455 8.82229M14.9091 1.14633C15.8624 1.49933 16.5455 2.45182 16.5455 3.57144C16.5455 4.69105 15.8624 5.64354 14.9091 5.99655M8.36364 8.71429H11.6364C13.4438 8.71429 14.9091 10.2493 14.9091 12.1429V13H5.09091V12.1429C5.09091 10.2493 6.55616 8.71429 8.36364 8.71429ZM12.4545 3.57143C12.4545 4.99159 11.3556 6.14286 10 6.14286C8.64439 6.14286 7.54545 4.99159 7.54545 3.57143C7.54545 2.15127 8.64439 1 10 1C11.3556 1 12.4545 2.15127 12.4545 3.57143Z" stroke="white" stroke-linecap="round" stroke-linejoin="round"/>
</svg>
