<svg width="18" height="18" viewBox="0 0 18 18" fill="none" xmlns="http://www.w3.org/2000/svg">
<g id="Group 729">
<path id="Vector" d="M6.2 14.6H5.8C2.6 14.6 1 13.8 1 9.8V5.8C1 2.6 2.6 1 5.8 1H12.2C15.4 1 17 2.6 17 5.8V9.8C17 13 15.4 14.6 12.2 14.6H11.8C11.552 14.6 11.312 14.72 11.16 14.92L9.96 16.52C9.432 17.224 8.568 17.224 8.04 16.52L6.84 14.92C6.712 14.744 6.416 14.6 6.2 14.6V14.6Z" stroke="black" stroke-miterlimit="10" stroke-linecap="round" stroke-linejoin="round"/>
<path id="Vector_2" d="M12.1967 8.19995H12.2047M8.9959 8.19995H9.0039M5.7959 8.19995H5.8023" stroke="black" stroke-linecap="round" stroke-linejoin="round"/>
</g>
</svg>
