<svg width="23" height="23" viewBox="0 0 23 23" fill="none" xmlns="http://www.w3.org/2000/svg">
<path d="M22.7754 9.24717H21.85V9.2H11.5V13.8H18.0002C17.0501 16.4773 14.503 18.4 11.5 18.4C7.68838 18.4 4.6 15.3116 4.6 11.5C4.6 7.68838 7.68838 4.6 11.5 4.6C13.2587 4.6 14.8602 5.2626 16.0775 6.34746L19.3299 3.09512C17.277 1.18145 14.53 0 11.5 0C5.14805 0 0 5.14805 0 11.5C0 17.852 5.14805 23 11.5 23C17.852 23 23 17.852 23 11.5C23 10.7296 22.9214 9.97715 22.7754 9.24717Z" fill="#FFC107"/>
<path d="M1.3252 6.14756L5.10537 8.91924C6.12734 6.38789 8.60254 4.6 11.5 4.6C13.2587 4.6 14.8602 5.2626 16.0775 6.34746L19.3299 3.09512C17.277 1.18145 14.53 0 11.5 0C7.08193 0 3.25234 2.49316 1.3252 6.14756Z" fill="#FF3D00"/>
<path d="M11.4999 23C14.4692 23 17.169 21.8635 19.2107 20.0149L15.6507 17.0029C14.4962 17.8767 13.0609 18.4 11.4999 18.4C8.5081 18.4 5.97002 16.4931 5.01318 13.8315L1.26221 16.7199C3.16465 20.444 7.03018 23 11.4999 23Z" fill="#4CAF50"/>
<path d="M22.7754 9.24718H21.85V9.20001H11.5V13.8H18.0002C17.5442 15.087 16.7154 16.1943 15.6485 17.0029C15.6508 17.0029 15.6508 17.0029 15.6508 17.0029L19.2108 20.015C18.9593 20.2418 23 17.25 23 11.5C23 10.7296 22.9214 9.97716 22.7754 9.24718Z" fill="#1976D2"/>
</svg>
