<svg width="22" height="22" viewBox="0 0 22 22" fill="none" xmlns="http://www.w3.org/2000/svg">
<path d="M13.5298 9.04796L8.46984 14.108C7.79884 13.437 7.42188 12.5269 7.42188 11.578C7.42188 11.1081 7.51442 10.6428 7.69423 10.2087C7.87404 9.77464 8.13759 9.3802 8.46984 9.04796C8.80208 8.71572 9.19651 8.45217 9.63061 8.27236C10.0647 8.09255 10.53 8 10.9998 8C11.9488 8 12.8588 8.37696 13.5298 9.04796Z" stroke="#717171" stroke-linecap="round" stroke-linejoin="round"/>
<path d="M16.8198 5.04C15.0698 3.72 13.0698 3 10.9998 3C7.46984 3 4.17984 5.08 1.88984 8.68C0.989844 10.09 0.989844 12.46 1.88984 13.87C2.67984 15.11 3.59984 16.18 4.59984 17.04M7.41984 18.8C8.55984 19.28 9.76984 19.54 10.9998 19.54C14.5298 19.54 17.8198 17.46 20.1098 13.86C21.0098 12.45 21.0098 10.08 20.1098 8.67C19.7798 8.15 19.4198 7.66 19.0498 7.2" stroke="#717171" stroke-linecap="round" stroke-linejoin="round"/>
<path d="M14.51 11.7C14.3745 12.3976 14.0337 13.0387 13.5312 13.5412C13.0287 14.0437 12.3876 14.3845 11.69 14.52M8.47 13.53L1 21M21 1L13.53 8.47" stroke="#717171" stroke-linecap="round" stroke-linejoin="round"/>
</svg>
