<svg width="22" height="22" viewBox="0 0 22 22" fill="none" xmlns="http://www.w3.org/2000/svg">
<g id="Group 769">
<path id="Vector" d="M16.54 21.4765H4.96C2.22 21.4765 0 19.2465 0 16.5065V9.09654C0 7.73654 0.84 6.02654 1.92 5.18654L7.31 0.986537C8.93 -0.273463 11.52 -0.333463 13.2 0.846536L19.38 5.17654C20.57 6.00654 21.5 7.78654 21.5 9.23654V16.5165C21.5 19.2465 19.28 21.4765 16.54 21.4765ZM8.23 2.16654L2.84 6.36654C2.13 6.92654 1.5 8.19654 1.5 9.09654V16.5065C1.5 17.4251 1.86421 18.3062 2.5128 18.9567C3.16139 19.6071 4.04143 19.9739 4.96 19.9765H16.54C18.45 19.9765 20 18.4265 20 16.5165V9.23654C20 8.27654 19.31 6.94654 18.52 6.40654L12.34 2.07654C11.2 1.27654 9.32 1.31654 8.23 2.16654Z" fill="black"/>
<path id="Vector_2" d="M10.75 17.4766C10.34 17.4766 10 17.1366 10 16.7266V13.7266C10 13.3166 10.34 12.9766 10.75 12.9766C11.16 12.9766 11.5 13.3166 11.5 13.7266V16.7266C11.5 17.1366 11.16 17.4766 10.75 17.4766Z" fill="black"/>
</g>
</svg>
