<svg width="24" height="23" viewBox="0 0 24 23" fill="none" xmlns="http://www.w3.org/2000/svg">
<path d="M24 14.1002V23H18.8549V14.6966C18.8549 12.6117 18.112 11.1879 16.2492 11.1879C14.8275 11.1879 13.983 12.1465 13.61 13.0746C13.4746 13.4063 13.4397 13.867 13.4397 14.3322V22.9996H8.29417C8.29417 22.9996 8.36324 8.93641 8.29417 7.48068H13.44V9.67986C13.4297 9.69717 13.4151 9.7141 13.4059 9.73065H13.44V9.67986C14.1238 8.62471 15.3432 7.11626 18.0771 7.11626C21.4622 7.11626 24 9.3343 24 14.1002ZM2.91156 0C1.1515 0 0 1.15866 0 2.68096C0 4.17094 1.11812 5.36307 2.84402 5.36307H2.87741C4.672 5.36307 5.78781 4.17094 5.78781 2.68096C5.75366 1.15866 4.672 0 2.91156 0ZM0.305813 23H5.44938V7.48068H0.305813V23Z" fill="#007AB9"/>
</svg>
