<svg width="21" height="21" viewBox="0 0 21 21" fill="none" xmlns="http://www.w3.org/2000/svg">
<path id="Vector" d="M20 1L14.5 6.5M20 1H13.5M20 1V7.5M8.75 20C9.76774 20 10.7755 19.7995 11.7158 19.4101C12.6561 19.0206 13.5104 18.4497 14.2301 17.7301C14.9497 17.0104 15.5206 16.1561 15.9101 15.2158C16.2995 14.2755 16.5 13.2677 16.5 12.25C16.5 11.2323 16.2995 10.2245 15.9101 9.2842C15.5206 8.34393 14.9497 7.48958 14.2301 6.76992C13.5104 6.05027 12.6561 5.47941 11.7158 5.08993C10.7755 4.70046 9.76774 4.5 8.75 4.5C6.69457 4.5 4.72333 5.31652 3.26992 6.76992C1.81652 8.22333 1 10.1946 1 12.25C1 14.3054 1.81652 16.2767 3.26992 17.7301C4.72333 19.1835 6.69457 20 8.75 20Z" stroke="#3071F5" stroke-width="1.5" stroke-linecap="round" stroke-linejoin="round"/>
</svg>
