<svg width="19" height="22" viewBox="0 0 19 22" fill="none" xmlns="http://www.w3.org/2000/svg">
<path id="shape" d="M6.3125 16.5556V17.6667C6.3125 18.1044 6.39495 18.5379 6.55513 18.9423C6.71532 19.3467 6.95011 19.7142 7.2461 20.0237C7.54208 20.3332 7.89347 20.5788 8.2802 20.7463C8.66692 20.9138 9.08141 21 9.5 21C9.91859 21 10.3331 20.9138 10.7198 20.7463C11.1065 20.5788 11.4579 20.3332 11.7539 20.0237C12.0499 19.7142 12.2847 19.3467 12.4449 18.9423C12.6051 18.5379 12.6875 18.1044 12.6875 17.6667V16.5556M15.875 7.66667C15.875 11 18 16.5556 18 16.5556H1C1 16.5556 3.125 12.1111 3.125 7.66667C3.125 4.03555 6.02775 1 9.5 1C12.9723 1 15.875 4.03555 15.875 7.66667Z" stroke="white" stroke-linecap="round" stroke-linejoin="round"/>
</svg>
