<svg width="22" height="22" viewBox="0 0 22 22" fill="none" xmlns="http://www.w3.org/2000/svg">
<path d="M17.75 7.5C15.68 7.5 14 5.82 14 3.75C14 1.68 15.68 0 17.75 0C19.82 0 21.5 1.68 21.5 3.75C21.5 5.82 19.82 7.5 17.75 7.5ZM17.75 1.5C16.51 1.5 15.5 2.51 15.5 3.75C15.5 4.99 16.51 6 17.75 6C18.99 6 20 4.99 20 3.75C20 2.51 18.99 1.5 17.75 1.5ZM10.75 12.5H5.75C5.34 12.5 5 12.16 5 11.75C5 11.34 5.34 11 5.75 11H10.75C11.16 11 11.5 11.34 11.5 11.75C11.5 12.16 11.16 12.5 10.75 12.5ZM14.75 16.5H5.75C5.34 16.5 5 16.16 5 15.75C5 15.34 5.34 15 5.75 15H14.75C15.16 15 15.5 15.34 15.5 15.75C15.5 16.16 15.16 16.5 14.75 16.5Z" fill="black"/>
<path d="M13.75 21.5H7.75C2.32 21.5 0 19.18 0 13.75V7.75C0 2.32 2.32 0 7.75 0H12.75C13.16 0 13.5 0.34 13.5 0.75C13.5 1.16 13.16 1.5 12.75 1.5H7.75C3.14 1.5 1.5 3.14 1.5 7.75V13.75C1.5 18.36 3.14 20 7.75 20H13.75C18.36 20 20 18.36 20 13.75V8.75C20 8.34 20.34 8 20.75 8C21.16 8 21.5 8.34 21.5 8.75V13.75C21.5 19.18 19.18 21.5 13.75 21.5Z" fill="black"/>
</svg>
