<svg width="68" height="69" viewBox="0 0 68 69" fill="none" xmlns="http://www.w3.org/2000/svg">
<g id="Group 3045">
<g id="Group 3044">
<g id="Ellipse 22">
<circle cx="34" cy="34.5" r="34" fill="#4CAF50" fill-opacity="0.06"/>
<circle cx="34" cy="34.5" r="33.75" stroke="#4CAF50" stroke-opacity="0.51" stroke-width="0.5"/>
</g>
<circle id="Ellipse 24" cx="34.0001" cy="34.5" r="24.4561" fill="#4CAF50" fill-opacity="0.15"/>
<circle id="Ellipse 23" cx="33.9999" cy="34.5" r="17.2982" fill="#4CAF50"/>
<path id="Vector" d="M42.9474 33.71V29.7802C42.9474 29.0461 42.3663 28.2136 41.6446 27.9361L36.4241 25.8951C35.2493 25.4385 33.9343 25.4385 32.7595 25.8951L27.539 27.9361C26.8267 28.2136 26.2456 29.0461 26.2456 29.7802V33.71C26.2456 38.0875 29.5728 42.1874 34.1185 43.3869C34.4278 43.4675 34.7652 43.4675 35.0745 43.3869C39.6201 42.1874 42.9474 38.0875 42.9474 33.71ZM35.2994 35.2766V37.6309C35.2994 37.9979 34.9808 38.3023 34.5965 38.3023C34.2122 38.3023 33.8935 37.9979 33.8935 37.6309V35.2766C33.4199 35.1348 33.0058 34.8528 32.711 34.4714C32.4161 34.0901 32.2559 33.6291 32.2534 33.155C32.2534 32.5615 32.5002 31.9922 32.9396 31.5725C33.3791 31.1528 33.975 30.917 34.5965 30.917C35.2179 30.917 35.8139 31.1528 36.2533 31.5725C36.6927 31.9922 36.9396 32.5615 36.9396 33.155C36.9396 34.1576 36.246 34.9901 35.2994 35.2766Z" fill="white"/>
</g>
<path id="Vector_2" d="M54.5 16C51.4695 16 49 18.4695 49 21.5C49 24.5305 51.4695 27 54.5 27C57.5305 27 60 24.5305 60 21.5C60 18.4695 57.5305 16 54.5 16ZM57.129 20.235L54.0105 23.3535C53.9332 23.4307 53.8283 23.4741 53.719 23.4741C53.6097 23.4741 53.5048 23.4307 53.4275 23.3535L51.871 21.797C51.7943 21.7194 51.7513 21.6146 51.7513 21.5055C51.7513 21.3964 51.7943 21.2916 51.871 21.214C52.0305 21.0545 52.2945 21.0545 52.454 21.214L53.719 22.479L56.546 19.652C56.7055 19.4925 56.9695 19.4925 57.129 19.652C57.2885 19.8115 57.2885 20.07 57.129 20.235Z" fill="#4CAF50"/>
</g>
</svg>
