<svg width="150" height="150" viewBox="0 0 150 150" fill="none" xmlns="http://www.w3.org/2000/svg">
<circle cx="75" cy="75" r="75" fill="#EFEFEF"/>
<path d="M90.388 59.5834L68.8576 81.3379L57.3213 69.2175C56.8583 68.7075 56.2987 68.296 55.6754 68.0073C55.0522 67.7185 54.3779 67.5584 53.6922 67.5363C53.0066 67.5141 52.3235 67.6305 51.6832 67.8785C51.0429 68.1265 50.4583 68.501 49.9639 68.9801C49.4695 69.4593 49.0752 70.0332 48.8044 70.6682C48.5335 71.3032 48.3916 71.9864 48.3868 72.6775C48.3821 73.3687 48.5147 74.0538 48.7768 74.6925C49.039 75.3312 49.4253 75.9106 49.9131 76.3965L61.7682 88.8276C62.6523 89.7898 63.721 90.5612 64.9094 91.0954C66.0979 91.6296 67.3816 91.9153 68.6828 91.9354H68.8525C70.1277 91.9397 71.3911 91.6887 72.5693 91.1969C73.7475 90.7052 74.8169 89.9826 75.7157 89.0711L97.6779 66.9437C98.1576 66.4614 98.5383 65.8887 98.7983 65.2582C99.0583 64.6277 99.1924 63.9518 99.1932 63.269C99.1939 62.5863 99.0611 61.9101 98.8025 61.279C98.5438 60.648 98.1643 60.0744 97.6856 59.5912C97.207 59.1079 96.6385 58.7243 96.0127 58.4624C95.3869 58.2004 94.7161 58.0652 94.0384 58.0645C93.3608 58.0638 92.6896 58.1976 92.0633 58.4582C91.437 58.7188 90.8677 59.1011 90.388 59.5834Z" fill="#0A83F3"/>
</svg>
