<svg width="18" height="20" viewBox="0 0 18 20" fill="none" xmlns="http://www.w3.org/2000/svg">
<g id="Group 728">
<path id="Vector" d="M14.3995 16.1639H13.7155C12.9955 16.1639 12.3116 16.4429 11.8076 16.9469L10.2687 18.4678C9.56679 19.1607 8.42387 19.1607 7.72192 18.4678L6.18302 16.9469C5.67906 16.4429 4.98611 16.1639 4.27516 16.1639H3.6002C2.10631 16.1639 0.900391 14.967 0.900391 13.4911V3.67281C0.900391 2.19692 2.10631 1 3.6002 1H14.3995C15.8933 1 17.0993 2.19692 17.0993 3.67281V13.4911C17.0993 14.958 15.8933 16.1639 14.3995 16.1639Z" stroke="black" stroke-miterlimit="10" stroke-linecap="round" stroke-linejoin="round"/>
<path id="Vector_2" d="M4.5 7.43449C4.5 6.59754 5.18395 5.91359 6.02089 5.91359C6.85784 5.91359 7.54179 6.59754 7.54179 7.43449C7.54179 9.12637 5.13896 9.30636 4.60799 10.9172C4.5 11.2502 4.77898 11.5832 5.12996 11.5832H7.54179M12.6354 11.5742V6.43556C12.6359 6.32185 12.5993 6.21109 12.531 6.12012C12.4628 6.02916 12.3668 5.96296 12.2575 5.93159C12.1474 5.90051 12.0303 5.9056 11.9234 5.9461C11.8164 5.98661 11.7253 6.06039 11.6635 6.15658C11.0155 7.2005 10.3136 8.38842 9.70164 9.43235C9.60265 9.60334 9.60265 9.82832 9.70164 9.99931C9.80063 10.1703 9.98962 10.2783 10.1966 10.2783H13.4994" stroke="black" stroke-linecap="round" stroke-linejoin="round"/>
</g>
</svg>
